HIERARCHY
ROOT Hips
{
  OFFSET 60.3409 92.7823 6.99863
  CHANNELS 6 Xposition Yposition Zposition Zrotation Xrotation Yrotation
  JOINT spine
  {
    OFFSET 0 7.4756 0.429885
    CHANNELS 3 Zrotation Xrotation Yrotation
    JOINT spine1
    {
      OFFSET 0 9.92301 0
      CHANNELS 3 Zrotation Xrotation Yrotation
      JOINT spine2
      {
        OFFSET 0 9.50804 0
        CHANNELS 3 Zrotation Xrotation Yrotation
        JOINT Neck
        {
          OFFSET 0 24.4111 1.16384
          CHANNELS 3 Zrotation Xrotation Yrotation
          JOINT Head
          {
            OFFSET 0 7.37523 0
            CHANNELS 3 Zrotation Xrotation Yrotation
            End Site
            {
              OFFSET 0 17.8522 -5.88741
            }
          }
        }
        JOINT RightShoulder
        {
          OFFSET -4.00356 10.2679 -0.557468
          CHANNELS 3 Zrotation Xrotation Yrotation
          JOINT RightArm
          {
            OFFSET 0 13.4673 0
            CHANNELS 3 Zrotation Xrotation Yrotation
            JOINT RightArmRoll
            {
              OFFSET 0 6.79858 0
              CHANNELS 3 Zrotation Xrotation Yrotation
              JOINT RightForeArm
              {
                OFFSET 0 19.8018 0
                CHANNELS 3 Zrotation Xrotation Yrotation
                JOINT RightForeArmRoll
                {
                  OFFSET 0 7.62905 0
                  CHANNELS 3 Zrotation Xrotation Yrotation
                  JOINT RightHand
                  {
                    OFFSET 0 15.3098 0
                    CHANNELS 3 Zrotation Xrotation Yrotation
                    End Site
                    {
                      OFFSET 0 0 0
                    }
                  }
                }
              }
            }
          }
        }
        JOINT LeftShoulder
        {
          OFFSET 4.00356 10.2679 -0.557468
          CHANNELS 3 Zrotation Xrotation Yrotation
          JOINT LeftArm
          {
            OFFSET 0 13.4673 0
            CHANNELS 3 Zrotation Xrotation Yrotation
            JOINT LeftArmRoll
            {
              OFFSET 0 6.79858 0
              CHANNELS 3 Zrotation Xrotation Yrotation
              JOINT LeftForeArm
              {
                OFFSET 0 19.8018 0
                CHANNELS 3 Zrotation Xrotation Yrotation
                JOINT LeftForeArmRoll
                {
                  OFFSET 0 7.62905 0
                  CHANNELS 3 Zrotation Xrotation Yrotation
                  JOINT LeftHand
                  {
                    OFFSET 0 15.3098 0
                    CHANNELS 3 Zrotation Xrotation Yrotation
                    End Site
                    {
                      OFFSET 0 0 0
                    }
                  }
                }
              }
            }
          }
        }
      }
    }
  }
  JOINT RightUpLeg
  {
    OFFSET -6.6261 -1.21505 -1.01927
    CHANNELS 3 Zrotation Xrotation Yrotation
    JOINT RightUpLegRoll
    {
      OFFSET 0 17.9517 0
      CHANNELS 3 Zrotation Xrotation Yrotation
      JOINT RightLeg
      {
        OFFSET 0 -22.2304 0
        CHANNELS 3 Zrotation Xrotation Yrotation
        JOINT RightLegRoll
        {
          OFFSET 0 22.3032 0
          CHANNELS 3 Zrotation Xrotation Yrotation
          JOINT RightFoot
          {
            OFFSET 0 18.5636 0
            CHANNELS 3 Zrotation Xrotation Yrotation
            JOINT RightToeBase
            {
              OFFSET 0 15.5183 0
              CHANNELS 3 Zrotation Xrotation Yrotation
              End Site
              {
                OFFSET 0.00657761 7.51538 -0.866263
              }
            }
          }
        }
      }
    }
  }
  JOINT LeftUpLeg
  {
    OFFSET 6.6261 -1.21505 -1.01927
    CHANNELS 3 Zrotation Xrotation Yrotation
    JOINT LeftUpLegRoll
    {
      OFFSET 0 17.9518 0
      CHANNELS 3 Zrotation Xrotation Yrotation
      JOINT LeftLeg
      {
        OFFSET 0 22.2303 0
        CHANNELS 3 Zrotation Xrotation Yrotation
        JOINT LeftLegRoll
        {
          OFFSET 0 22.5093 0
          CHANNELS 3 Zrotation Xrotation Yrotation
          JOINT LeftFoot
          {
            OFFSET 0 18.3575 0
            CHANNELS 3 Zrotation Xrotation Yrotation
            JOINT LeftToeBase
            {
              OFFSET 0 15.5183 0
              CHANNELS 3 Zrotation Xrotation Yrotation
              End Site
              {
                OFFSET -0.029478 7.51539 -0.866263
              }
            }
          }
        }
      }
    }
  }
}
MOTION
Frames: 4
Frame Time: 0.00208333
59.991 92.8831 6.05451 1.488 -11.0932 -3.82346 -0.0897157 0.186914 0.263786 -0.181844 4.37729 0.533972 -0.188558 6.02233 0.537641 -14.4165 5.1018 0.0296245 14.092 6.24975 -2.23844 55.1161 -2.32424 -1.07806 136.944 33.6812 -46.8048 1.85008e-007 -3.03027e-009 -3.68952e-006 8.93894 80.9104 -11.1952 -2.10368e-005 1.66967e-006 -3.00098 8.02899 -4.95145 0.697672 -76.0164 -3.05698 3.2921 -106.847 34.3708 25.1809 -1.95399e-005 3.22167e-006 -1.95157e-006 -14.7792 80.9036 18.0435 3.45965e-006 1.25333e-006 3.00447 -8.02952 -4.95143 -0.697666 173.267 4.21824 4.08849 180 7.01491e-015 178.701 179.225 29.4763 179.005 2.7922e-006 -1.83524e-007 0.512437 -19.0362 68.2718 19.7844 8.15388 28.2871 -0.244457 174.604 -5.72061 4.52945 4.54188e-006 -4.6773e-006 -1.14657 -4.23091 -8.77001 -0.103875 -4.2131e-007 -4.95531e-006 -0.106454 19.6295 69.3512 -20.7173 -8.13649 25.2327 3.48773 
59.9911 92.9059 6.06132 1.4855 -11.0956 -3.83197 -0.0900429 0.187206 0.263718 -0.181645 4.37802 0.534088 -0.188353 6.02306 0.537741 -14.4072 5.10106 0.0296044 14.0689 6.25052 -2.23767 55.0793 -2.3516 -1.09248 136.94 33.7113 -46.6105 1.85008e-007 -3.03029e-009 -3.68952e-006 8.86982 81.0461 -11.1809 -2.10368e-005 1.66967e-006 -3.00098 8.02899 -4.95145 0.697672 -75.9988 -3.05947 3.29182 -106.77 34.353 24.9418 -1.95399e-005 3.22167e-006 -1.95157e-006 -14.7358 80.9123 18.0024 3.45965e-006 1.25333e-006 3.00447 -8.02952 -4.95143 -0.697666 173.27 4.215 4.08575 180 7.01491e-015 178.701 179.229 29.4758 179.004 2.7922e-006 -1.83524e-007 0.512502 -19.0337 68.2689 19.7817 8.15374 28.286 -0.241663 174.605 -5.72942 4.52979 4.54188e-006 -4.6773e-006 -1.14673 -4.22876 -8.76444 -0.104049 -4.2131e-007 -4.95531e-006 -0.106439 19.6337 69.3555 -20.7217 -8.13649 25.2327 3.48773 
59.9794 92.9038 6.06955 1.48253 -11.0986 -3.84121 -0.0903448 0.187621 0.263671 -0.181272 4.37891 0.534269 -0.187974 6.02396 0.537901 -14.3977 5.10033 0.0299462 14.0454 6.25209 -2.23657 55.0417 -2.37874 -1.10668 136.938 33.7415 -46.4156 1.85008e-007 -3.03026e-009 -3.68952e-006 8.80892 81.179 -11.1726 -2.10368e-005 1.66967e-006 -3.00098 8.02899 -4.95145 0.697672 -75.9817 -3.0618 3.29152 -106.696 34.3341 24.7015 -1.95399e-005 3.22167e-006 -1.95157e-006 -14.6909 80.9201 17.9601 3.45965e-006 1.25333e-006 3.00447 -8.02952 -4.95143 -0.697666 173.273 4.21061 4.08253 180 7.01491e-015 178.701 179.233 29.4743 179.003 2.7922e-006 -1.83524e-007 0.512568 -19.0309 68.2657 19.7787 8.1536 28.2849 -0.238797 174.607 -5.73844 4.53041 4.54188e-006 -4.6773e-006 -1.14695 -4.22586 -8.75968 -0.104204 -4.2131e-007 -4.95531e-006 -0.106424 19.6386 69.3608 -20.727 -8.13649 25.2327 3.48773 
59.9796 92.8901 6.07476 1.47917 -11.1021 -3.85107 -0.0906197 0.188132 0.263639 -0.180757 4.37993 0.534499 -0.187452 6.02497 0.538107 -14.3877 5.09966 0.0306276 14.0218 6.25436 -2.23517 55.0033 -2.4056 -1.12064 136.939 33.7716 -46.2213 1.85008e-007 -3.03025e-009 -3.68952e-006 8.75579 81.3091 -11.17 -2.10368e-005 1.66967e-006 -3.00098 8.02899 -4.95145 0.697672 -75.9653 -3.064 3.29121 -106.623 34.3143 24.4608 -1.95399e-005 3.22167e-006 -1.95157e-006 -14.645 80.927 17.9168 3.45965e-006 1.25333e-006 3.00447 -8.02952 -4.95143 -0.697666 173.277 4.2053 4.07891 180 7.01491e-015 178.701 179.238 29.4719 179.002 2.7922e-006 -1.83524e-007 0.512637 -19.0279 68.2622 19.7754 8.15345 28.2837 -0.235867 174.609 -5.74762 4.53127 4.54188e-006 -4.6773e-006 -1.14721 -4.22234 -8.75555 -0.10434 -4.2131e-007 -4.95531e-006 -0.10641 19.6443 69.3667 -20.733 -8.13649 25.2327 3.48773 
